<svg fill="none" height="24" viewBox="0 0 24 24" width="24" xmlns="http://www.w3.org/2000/svg"><path d="m21 12c0 1.8569-.5624 3.5825-1.5261 5.0157-1.6159 2.4032-4.3603 3.9843-7.4739 3.9843-3.11364 0-5.85798-1.5811-7.47391-3.9843-.96372-1.4332-1.52609-3.1588-1.52609-5.0157 0-4.97056 4.02944-9 9-9 4.9706 0 9 4.02944 9 9z" stroke="#292929" stroke-width="1.5"/><g fill="#292929"><path d="m13.25 9c0 .69036-.5596 1.25-1.25 1.25v1.5c1.5188 0 2.75-1.2312 2.75-2.75zm-1.25 1.25c-.6904 0-1.25-.55964-1.25-1.25h-1.5c0 1.5188 1.2312 2.75 2.75 2.75zm-1.25-1.25c0-.69036.5596-1.25 1.25-1.25v-1.5c-1.5188 0-2.75 1.23122-2.75 2.75zm1.25-1.25c.6904 0 1.25.55964 1.25 1.25h1.5c0-1.51878-1.2312-2.75-2.75-2.75z"/><path d="m5.16583 17.8564-.7188-.2141-.11673.392.26626.3104zm13.66827 0 .5693.4883.2662-.3104-.1167-.392zm-9.83412-2.1064h6.00002v-1.5h-6.00002zm0-1.5c-2.15257 0-3.96889 1.4312-4.55295 3.3923l1.4376.4282c.39989-1.3427 1.64441-2.3205 3.11535-2.3205zm3.00002 6c-2.50615 0-4.75068-1.1165-6.26489-2.8819l-1.13855.9766c1.78702 2.0834 4.44125 3.4053 7.40344 3.4053zm3-4.5c1.4709 0 2.7154.9778 3.1153 2.3205l1.4376-.4282c-.584-1.9611-2.4004-3.3923-4.5529-3.3923zm3.2648 1.6181c-1.5142 1.7654-3.7587 2.8819-6.2648 2.8819v1.5c2.9621 0 5.6164-1.3219 7.4034-3.4053z"/></g></svg>